# xmcd
#
# Track frame offsets:
#	150
#	31450
#	59662
#	90815
#	118445
#	149645
#	180097
#	208730
#	239245
#
# Disc length: 3562 seconds
#
# Revision: 0
# Processed by: cddbd v1.4PL0 Copyright (c) Steve Scherf et al.
# Submitted via: dBpowerAMP V4.0
#
DISCID=870de809
DTITLE=Heartlanders - Contratoons
DYEAR=1900
DGENRE=
TTITLE0=Virginia Darlin'
TTITLE1=Angus Campbell
TTITLE2=I Don't Love Nobody Medley
TTITLE3=Rachel
TTITLE4=Paddy on the Turnpike
TTITLE5=Rickett's and Rambles
TTITLE6=Caledonian Lady
TTITLE7=Marmaduke's Hornpipe
TTITLE8=Wagner
EXTD=
EXTT0=
EXTT1=
EXTT2=
EXTT3=
EXTT4=
EXTT5=
EXTT6=
EXTT7=
EXTT8=
PLAYORDER=
